<?xml version="1.0" encoding="UTF-8" standalone="no"?>
<!-- Created with Inkscape (http://www.inkscape.org/) -->

<svg
   xmlns:dc="http://purl.org/dc/elements/1.1/"
   xmlns:cc="http://creativecommons.org/ns#"
   xmlns:rdf="http://www.w3.org/1999/02/22-rdf-syntax-ns#"
   xmlns:svg="http://www.w3.org/2000/svg"
   xmlns="http://www.w3.org/2000/svg"
   xmlns:sodipodi="http://sodipodi.sourceforge.net/DTD/sodipodi-0.dtd"
   xmlns:inkscape="http://www.inkscape.org/namespaces/inkscape"
   width="214.87654mm"
   height="62.210445mm"
   viewBox="0 0 214.87655 62.210445"
   version="1.1"
   id="svg8"
   inkscape:version="0.92.5 (2060ec1f9f, 2020-04-08)"
   sodipodi:docname="drawing.svg">
  <defs
     id="defs2" />
  <sodipodi:namedview
     id="base"
     pagecolor="#ffffff"
     bordercolor="#666666"
     borderopacity="1.0"
     inkscape:pageopacity="0.0"
     inkscape:pageshadow="2"
     inkscape:zoom="0.9899495"
     inkscape:cx="182.77405"
     inkscape:cy="322.40951"
     inkscape:document-units="mm"
     inkscape:current-layer="layer1"
     showgrid="false"
     showguides="true"
     inkscape:guide-bbox="true"
     inkscape:window-width="1920"
     inkscape:window-height="1001"
     inkscape:window-x="1911"
     inkscape:window-y="-9"
     inkscape:window-maximized="1"
     fit-margin-top="0"
     fit-margin-left="0"
     fit-margin-right="0"
     fit-margin-bottom="0">
    <sodipodi:guide
       position="-12.443806,-245.95441"
       orientation="0,1"
       id="guide914"
       inkscape:locked="false" />
  </sodipodi:namedview>
  <metadata
     id="metadata5">
    <rdf:RDF>
      <cc:Work
         rdf:about="">
        <dc:format>image/svg+xml</dc:format>
        <dc:type
           rdf:resource="http://purl.org/dc/dcmitype/StillImage" />
        <dc:title></dc:title>
      </cc:Work>
    </rdf:RDF>
  </metadata>
  <g
     inkscape:label="Layer 1"
     inkscape:groupmode="layer"
     id="layer1"
     transform="translate(0.38513149,-0.06047759)">
    <g
       id="g1043"
       transform="matrix(0.82317344,0,0,0.82317344,-49.286047,-136.42815)">
      <rect
         y="165.80786"
         x="59.405361"
         height="75.573921"
         width="73.634079"
         id="rect912"
         style="opacity:1;fill:#000000;fill-opacity:1;stroke:none;stroke-width:0.43939489;stroke-linecap:square;stroke-linejoin:round;stroke-miterlimit:4;stroke-dasharray:none;stroke-opacity:1" />
      <g
         style="fill:#ffffff;fill-opacity:1"
         transform="translate(0.05470319,2.4411119)"
         id="g925">
        <path
           inkscape:connector-curvature="0"
           style="fill:#ffffff;fill-opacity:1;stroke-width:0.56577557"
           d="m 74.663505,215.7402 c -3.552548,-0.81467 -4.75639,-4.77687 -2.221537,-7.31172 1.212203,-1.2122 1.804306,-1.40057 3.536097,-1.12493 3.788777,0.60302 6.067767,5.16466 3.635976,7.27779 -1.163832,1.01132 -3.356091,1.5245 -4.950536,1.15886 z"
           id="path889" />
        <path
           style="fill:#ffffff;fill-opacity:1;stroke-width:0.56577557"
           d="m 81.374038,216.00403 c 0.134478,-1.49102 -0.196352,-4.66944 1.439423,-6.27777 1.482759,-1.45788 1.637961,-1.56748 2.534716,-2.04593 0.04875,0.34142 -0.03997,2.69841 -0.08073,4.2753 1.065908,0.18824 2.719913,0.0106 9.085294,0 9.141419,-0.0152 9.166129,0.13155 9.360489,1.50858 0.12852,0.91048 -0.21666,2.96478 -0.21666,2.96478 H 91.793763 81.374034 Z"
           id="path887"
           inkscape:connector-curvature="0"
           sodipodi:nodetypes="csccsccccc" />
        <path
           style="fill:#ffffff;fill-opacity:1;stroke-width:0.56577557"
           d="m 104.4764,214.41739 c 0.0414,-1.1005 -0.66731,-2.09988 -1.04403,-2.47746 -0.46099,-0.46205 -3.12021,-0.61266 -9.027128,-0.73499 h -8.60136 v -2.04058 -1.51557 l 12.622197,0.005 c 0,0 9.021551,0.32969 12.636051,0.85545 3.39282,0.49351 10.56167,5.23288 10.08757,7.02307 -0.28693,0.7477 -1.62,0.88593 -8.54425,0.88593 h -8.20427 z"
           id="path885"
           inkscape:connector-curvature="0"
           sodipodi:nodetypes="cccccccscscc" />
        <path
           style="fill:#ffffff;fill-opacity:1;stroke-width:0.56577557"
           d="m 86.261904,204.48784 v -2.54599 h 4.526205 4.526204 v 2.54599 2.54599 h -4.526204 -4.526205 z"
           id="path883"
           inkscape:connector-curvature="0" />
        <path
           style="fill:#ffffff;fill-opacity:1;stroke-width:0.56577557"
           d="m 86.261904,195.71832 v -4.5262 h 4.526205 4.526204 v 4.5262 4.52621 h -4.526204 -4.526205 z"
           id="path879"
           inkscape:connector-curvature="0" />
        <path
           style="fill:#ffffff;fill-opacity:1;stroke-width:0.56577557"
           d="m 66.311406,189.79684 c -0.665843,-0.66585 -0.483139,-2.86612 0.289797,-3.48999 0.679248,-0.54825 10.983644,-6.61029 22.675821,-13.34011 3.05861,-1.76048 6.078093,-3.20088 6.709962,-3.20088 1.029635,0 13.144514,6.70062 25.777334,14.25718 4.64315,2.77738 5.48996,3.93057 3.98872,5.43181 -0.37341,0.37341 -1.01844,0.67893 -1.43339,0.67893 -0.41494,0 -6.97032,-3.58223 -14.56749,-7.9605 l -13.81305,-7.96051 -13.423252,7.77481 c -13.087925,7.58059 -15.345261,8.66845 -16.204452,7.80926 z"
           id="path826"
           inkscape:connector-curvature="0"
           sodipodi:nodetypes="ccccccccccc" />
        <path
           style="fill:#ffffff;fill-opacity:1;stroke:none;stroke-width:0.26458332px;stroke-linecap:butt;stroke-linejoin:miter;stroke-opacity:1"
           d="m 96.845242,191.19212 h 9.052438 l 1e-5,9.05241 h -9.052446 z"
           id="path873"
           inkscape:connector-curvature="0" />
        <path
           inkscape:connector-curvature="0"
           style="fill:#ffffff;fill-opacity:1;stroke-width:0.56577557"
           d="m 96.84528,204.48784 v -2.54599 h 4.5262 4.52621 v 2.54599 2.54599 h -4.52621 -4.5262 z"
           id="path883-8" />
        <path
           style="fill:#ffffff;fill-opacity:1;stroke:none;stroke-width:0.26458332px;stroke-linecap:butt;stroke-linejoin:miter;stroke-opacity:1"
           d="m 66.087816,232.54156 v -24.82899 h 4.215756 v 9.11868 h 51.688248 v -9.11868 h 4.34672 l 0.0945,24.82899 h -4.34673 v -8.24528 H 70.303572 v 8.24528 h -4.215756"
           id="path908"
           inkscape:connector-curvature="0"
           sodipodi:nodetypes="ccccccccccccc" />
      </g>
    </g>
    <g
       id="g1054"
       transform="matrix(0.82317344,0,0,0.82317344,-37.399121,-136.42815)">
      <rect
         y="165.80786"
         x="138.47006"
         height="75.573921"
         width="73.634079"
         id="rect912-2"
         style="opacity:1;fill:#000000;fill-opacity:1;stroke:none;stroke-width:0.43939489;stroke-linecap:square;stroke-linejoin:round;stroke-miterlimit:4;stroke-dasharray:none;stroke-opacity:1" />
      <g
         transform="matrix(0.83326413,0,0,0.83326413,30.249648,36.836322)"
         id="g986">
        <path
           inkscape:connector-curvature="0"
           style="fill:#ffffff;fill-opacity:1;stroke:#000000;stroke-width:0.99999994px;stroke-linecap:butt;stroke-linejoin:miter;stroke-opacity:1"
           d="M 538.41211,649.76758 V 816.4668 h 147.50586 l 32.80469,60.08008 V 816.4668 H 777.3125 V 650.27344 Z"
           transform="scale(0.26458333)"
           id="path948" />
        <rect
           style="opacity:1;fill:#000000;fill-opacity:1;stroke:none;stroke-width:0.55201137;stroke-linecap:square;stroke-linejoin:round;stroke-miterlimit:4;stroke-dasharray:none;stroke-opacity:1"
           id="rect958"
           width="13.682165"
           height="8.5526247"
           x="145.98729"
           y="174.85782" />
        <rect
           style="opacity:1;fill:#000000;fill-opacity:1;stroke:none;stroke-width:0.49503049;stroke-linecap:square;stroke-linejoin:round;stroke-miterlimit:4;stroke-dasharray:none;stroke-opacity:1"
           id="rect960"
           width="37.463593"
           height="8.2853556"
           x="162.87106"
           y="174.72418" />
        <rect
           style="opacity:1;fill:#000000;fill-opacity:1;stroke:none;stroke-width:0.55767411;stroke-linecap:square;stroke-linejoin:round;stroke-miterlimit:4;stroke-dasharray:none;stroke-opacity:1"
           id="rect962"
           width="23.606344"
           height="8.0180855"
           x="145.98729"
           y="189.29037" />
        <rect
           style="opacity:1;fill:#000000;fill-opacity:1;stroke:none;stroke-width:0.5;stroke-linecap:square;stroke-linejoin:round;stroke-miterlimit:4;stroke-dasharray:none;stroke-opacity:1"
           id="rect964"
           width="27.79603"
           height="7.7508163"
           x="172.53862"
           y="189.55765" />
        <rect
           style="opacity:1;fill:#000000;fill-opacity:1;stroke:none;stroke-width:0.49639398;stroke-linecap:square;stroke-linejoin:round;stroke-miterlimit:4;stroke-dasharray:none;stroke-opacity:1"
           id="rect966"
           width="32.40168"
           height="6.9490075"
           x="145.98729"
           y="204.12384" />
        <rect
           style="opacity:1;fill:#000000;fill-opacity:1;stroke:none;stroke-width:0.5;stroke-linecap:square;stroke-linejoin:round;stroke-miterlimit:4;stroke-dasharray:none;stroke-opacity:1"
           id="rect968"
           width="15.501633"
           height="6.6817379"
           x="184.83302"
           y="204.12384" />
      </g>
    </g>
    <g
       id="g1059"
       transform="matrix(0.82317344,0,0,0.82317344,-25.512195,-136.42815)">
      <rect
         y="165.80786"
         x="217.9249"
         height="75.573921"
         width="73.634079"
         id="rect912-2-6"
         style="opacity:1;fill:#000000;fill-opacity:1;stroke:none;stroke-width:0.43939489;stroke-linecap:square;stroke-linejoin:round;stroke-miterlimit:4;stroke-dasharray:none;stroke-opacity:1" />
      <g
         transform="matrix(1.8961805,0,0,1.8961805,220.09554,162.78064)"
         id="g1011">
        <path
           id="path988"
           transform="matrix(0.13953489,0,0,0.13953489,-116.0731,-85.846595)"
           d="m 867.69141,658.23438 c -7.912,0 -14.33399,6.44279 -14.33399,14.39062 v 122.34961 c 0,7.94783 6.42199,14.39062 14.33399,14.39062 h -7.16797 c -7.912,0 -11.94553,7.1953 -14.33203,14.39063 l -14.33399,35.08008 c 0,4.68288 2.23686,8.82784 5.68164,11.45703 0.73753,0.56291 1.52775,1.05597 2.36719,1.46875 0.11932,0.0591 0.2382,0.11803 0.35937,0.17383 0.21696,0.0992 0.43563,0.19274 0.65821,0.28125 0.18708,0.0749 0.37746,0.14385 0.56836,0.21093 0.17777,0.062 0.35233,0.13043 0.5332,0.18555 0.003,7.9e-4 0.005,10e-4 0.008,0.002 0.3711,0.11367 0.74946,0.20767 1.13282,0.29102 0.13873,0.03 0.27972,0.0522 0.41992,0.0781 0.28877,0.0537 0.58031,0.0988 0.875,0.13476 0.14567,0.0177 0.29051,0.0356 0.4375,0.0488 0.42623,0.0386 0.85648,0.0664 1.29297,0.0664 h 229.332 c 0.4888,0 0.9714,-0.0262 1.4473,-0.0742 0.1877,-0.0189 0.3691,-0.0559 0.5547,-0.082 0.2804,-0.0396 0.5631,-0.0732 0.8379,-0.1289 0.3298,-0.0666 0.6514,-0.15713 0.9726,-0.2461 0.1182,-0.0329 0.2405,-0.056 0.3575,-0.0918 0.3698,-0.11281 0.7294,-0.24732 1.0859,-0.38867 0.066,-0.0262 0.134,-0.0471 0.1992,-0.0742 0.4138,-0.17126 0.8157,-0.36235 1.209,-0.57032 4.5567,-2.40952 7.6699,-7.2044 7.6699,-12.73437 l -14.334,-35.08789 c -2.9885,-6.9015 -6.42,-14.39063 -14.332,-14.39063 h -7.168 c 7.912,0 14.334,-6.44279 14.334,-14.39062 V 672.625 c 0,-7.94783 -6.422,-14.39066 -14.334,-14.39062 z m 7.16601,14.39648 h 171.99998 c 3.9632,0 7.166,3.22498 7.166,7.19531 v 107.94531 c 0,3.9775 -3.2028,7.19532 -7.166,7.19532 H 874.85742 c -3.956,0 -7.16601,-3.21782 -7.16601,-7.19532 V 679.82617 c 0,-3.9775 3.21001,-7.19531 7.16601,-7.19531 z m -6.3789,143.48437 h 185.24418 c 3.9631,0 6.8008,2.70138 8.5136,5.99805 l 5.4473,15.58789 c 1.5695,3.81984 -3.2033,7.19531 -7.1524,7.19531 h -47.2578 c 0,0 -7.9545,-0.10705 -8.75,-4.19921 -0.903,-4.59384 -2.8376,-11.30949 -3.1386,-12.77149 -0.4659,-2.24317 -2.2292,-4.05664 -5.81253,-4.05664 h -61.47461 c -3.354,0 -5.60444,1.91464 -6.13477,3.80664 -0.344,1.23267 -1.94236,8.22708 -3.31836,12.8711 -1.18967,4.02049 -7.90625,4.35742 -7.90625,4.35742 h -54.30859 c -3.956,0 -8.73552,-2.92398 -7.16602,-7.19532 l 4.92969,-14.16796 c 1.79167,-4.50067 4.32916,-7.42579 8.28516,-7.42579 z m 71,14.83594 h 50.27539 c 2.1285,0 3.5114,1.16757 3.9414,3.50391 0.42284,2.3435 2.16462,11.76015 2.30078,13.91015 0.13617,2.15717 -1.21232,4.17774 -3.78515,4.17774 h -55.76367 c -2.6875,0 -3.85575,-2.45661 -3.46875,-4.83594 0.387,-2.37217 2.57409,-12.85002 2.74609,-14.06836 0.16483,-1.2255 1.96224,-2.6875 3.75391,-2.6875 z"
           style="fill:#ffffff;fill-opacity:1;stroke-width:7.16666651"
           inkscape:connector-curvature="0" />
      </g>
    </g>
    <path
       style="fill:#ffffff;fill-opacity:1;stroke:#000000;stroke-width:0.26458333;stroke-linecap:butt;stroke-linejoin:miter;stroke-opacity:1;stroke-miterlimit:4;stroke-dasharray:none"
       d="m 64.418886,26.677233 v 8.976934 l 7.898158,-4.560003 z"
       id="path867"
       inkscape:connector-curvature="0" />
    <path
       style="fill:#ffffff;fill-opacity:1;stroke:#000000;stroke-width:0.26458333;stroke-linecap:butt;stroke-linejoin:miter;stroke-opacity:1;stroke-miterlimit:4;stroke-dasharray:none"
       d="m 141.01209,26.677233 v 8.976934 l 7.89816,-4.560003 z"
       id="path867-6"
       inkscape:connector-curvature="0" />
  </g>
</svg>
